# xmcd
#
# Track frame offsets: 
#        183
#        19628
#        44770
#        68665
#        84335
#        104843
#        126590
#        139743
#        155813
#        168053
#        188940
#        209730
#        233615
#        256728
#
# Disc length: 3812 seconds
#
# Revision: 4
# Processed by: cddbd v1.5.2PL0 Copyright (c) Steve Scherf et al.
# Submitted via: ExactAudioCopyFreeDBPlugin 1.0
#
DISCID=c80ee20e
DTITLE=Various Artist - Blues Balads Vol.4
DYEAR=1990
DGENRE=Blues
TTITLE0=B. B. King - Six Silver Strings
TTITLE1=Albert Collins - Blue Monday Hangover
TTITLE2=Koko Taylor - Please Don't Dog Me
TTITLE3=Little Charlie and the Nightcats - Lottery
TTITLE4=Delbert McClinton - I've Got Dreams to Remember (Live)
TTITLE5=Katie Webster - Red Negligee
TTITLE6=Roy Buchanan - Why Don't You Want Me
TTITLE7=Snowy White - The Agency Blues
TTITLE8=Willie Dixon - Save My Child
TTITLE9=Lil' Ed and the Blues Imperials - You Done Me Wrong for the Last
TTITLE9=Time
TTITLE10=Clarence "gatemouth" Brown - I Hate These Doggone Blues
TTITLE11=Duke Robillard and the Pleasure Kings - Duke's Mood
TTITLE12=Muddy Waters - Bus Driver
TTITLE13=Robert Cray/Albert Collins/Johnny Copeland - Blackjack
EXTD=
EXTT0=
EXTT1=
EXTT2=
EXTT3=
EXTT4=
EXTT5=
EXTT6=
EXTT7=
EXTT8=
EXTT9=
EXTT10=
EXTT11=
EXTT12=
EXTT13=
PLAYORDER=
